<?xml version="1.0" standalone="no"?><!DOCTYPE svg PUBLIC "-//W3C//DTD SVG 1.1//EN" "http://www.w3.org/Graphics/SVG/1.1/DTD/svg11.dtd"><svg id="narrow-bold" title="None" xmlns="http://www.w3.org/2000/svg" xmlns:xlink="http://www.w3.org/1999/xlink" xml:space="preserve" style="fill-rule:nonzero;clip-rule:evenodd;stroke-linejoin:round;stroke-miterlimit:1.41421;" width="100%" name="narrow-bold" viewBox="0.000 0.000 1000.000 1000.000" enable-background="0.000 0.000 1000.000 1000.000"><path d="M126 0C194 0 250 55 250 124C250 124 250 875 250 875C250 944 194 1000 126 1000C57 1000 1 944 1 875C1 875 1 124 1 124C1 55 57 0 126 0ZM375 0C444 0 500 55 500 124C500 124 500 875 500 875C500 944 444 1000 375 1000C306 1000 250 944 250 875C250 875 250 124 250 124C250 55 306 0 375 0ZM624 0C693 0 749 55 749 124C749 124 749 875 749 875C749 944 693 1000 624 1000C556 1000 500 944 500 875C500 875 500 124 500 124C500 55 556 0 624 0ZM875 0C943 0 999 55 999 124C999 124 999 875 999 875C999 944 943 1000 875 1000C805 1000 749 944 749 875C749 875 749 124 749 124C749 55 805 0 875 0Z"/></svg>