<?xml version="1.0" standalone="no"?><!DOCTYPE svg PUBLIC "-//W3C//DTD SVG 1.1//EN" "http://www.w3.org/Graphics/SVG/1.1/DTD/svg11.dtd"><svg id="wide-thin" title="None" xmlns="http://www.w3.org/2000/svg" xmlns:xlink="http://www.w3.org/1999/xlink" xml:space="preserve" style="fill-rule:nonzero;clip-rule:evenodd;stroke-linejoin:round;stroke-miterlimit:1.41421;" width="100%" name="wide-thin" viewBox="0.000 0.000 4000.000 1000.045" enable-background="0.000 0.000 4000.000 1000.045"><path d="M964 38C1011 85 1012 162 964 213C964 213 213 963 213 963C163 1012 85 1012 37 964C-12 914 -12 835 37 786C37 786 787 37 787 37C836 -13 914 -12 964 38ZM1036 38C1084 -12 1162 -13 1211 37C1211 37 1962 786 1962 786C2012 835 2012 914 1962 964C1914 1012 1834 1012 1785 963C1785 963 1036 213 1036 213C986 162 987 85 1036 38ZM2961 38C3010 85 3011 162 2961 213C2961 213 2211 963 2211 963C2161 1012 2083 1012 2035 964C1986 914 1986 835 2035 786C2035 786 2785 37 2785 37C2834 -13 2913 -12 2961 38ZM3033 38C3083 -12 3160 -13 3210 37C3210 37 3959 786 3959 786C4009 835 4009 914 3959 964C3912 1012 3833 1012 3783 963C3783 963 3033 213 3033 213C2984 162 2985 85 3033 38Z"/></svg>